<svg xmlns="http://www.w3.org/2000/svg" xmlns:xlink="http://www.w3.org/1999/xlink" width="300" height="300" viewBox="210544.37652886522 6152553.542171583 14151.365454089566 12470.009991484694" preserveAspectRatio="xMinYMin meet"><g transform="matrix(1,0,0,-1,0,12317577.09433465)"><path fill-rule="evenodd" fill="#66cc99" stroke="#555555" stroke-width="94.3424363605971" opacity="0.6" d="M 211426.993089602,6154493.06071159 L 211598.117642991,6155186.19429982 L 211560.067149477,6155687.31428434 L 211686.332689651,6155924.175159 L 211691.422367769,6156239.7600243 L 211813.043112547,6156510.54662664 L 212002.671108396,6156776.08845575 L 211951.445124963,6157057.00755047 L 211928.67197923,6157352.12089064 L 212168.971013177,6157573.75266458 L 212437.693494665,6157513.13628371 L 212785.410695445,6157391.22748342 L 212782.002381097,6157615.82738795 L 212921.260010216,6157887.8238852 L 212914.88339843,6158366.55072644 L 213339.143877772,6158570.04687561 L 213786.683470809,6158391.14846654 L 214103.901284406,6158200.0802819 L 214489.322205307,6158007.47876373 L 214839.286590095,6157880.24648799 L 214854.015877425,6158580.48183197 L 214805.038807097,6159196.84730017 L 215506.808384256,6159149.42975949 L 216105.759313111,6159538.35072477 L 215751.081777303,6160059.95311322 L 215215.029712398,6160483.04823562 L 214916.999056511,6161125.60143033 L 214869.970631973,6161766.25419988 L 214488.098919549,6162270.41615517 L 214251.953956276,6162820.51794077 L 214623.123589079,6163105.9446342 L 215363.230155388,6163482.13632787 L 215733.477985935,6164188.97309528 L 216578.604970663,6164492.79835736 L 217164.389580285,6164017.06858541 L 217826.315557184,6163323.65144972 L 218112.578776062,6162395.26619378 L 218459.848374508,6161765.53274988 L 218897.413992427,6161327.96713196 L 219196.087361848,6160966.46791368 L 219722.26449441,6160938.75707331 L 219805.859889859,6161258.6000753 L 219634.293094815,6161580.26860057 L 219432.209410888,6161872.34709722 L 219269.470112307,6162069.96268542 L 218981.171862145,6162420.04547905 L 218725.502311582,6162659.44012859 L 218469.832761019,6162898.83477813 L 218064.498077104,6163466.9485874 L 217506.554749456,6163895.7237049 L 217214.578876771,6164499.42751662 L 218210.804294712,6164262.55008703 L 218661.801736625,6164155.31420159 L 219161.289828043,6164042.8168837 L 219660.77791946,6163930.31956582 L 220659.754102296,6163705.32493004 L 221528.846519039,6163509.58339474 L 222397.938935781,6163313.84185944 L 223150.418968344,6163167.24767902 L 223652.971152095,6163069.34312036 L 223632.529158668,6162430.43532057 L 224082.14080953,6161938.49796029 L 224171.617336507,6161306.74316874 L 223728.727172704,6160850.38513341 L 223151.131246053,6161140.37787557 L 222582.870998718,6161485.52408602 L 222370.504850611,6162092.81663775 L 222026.729155452,6162637.36017415 L 221635.713791149,6162750.33997598 L 221234.955761959,6162681.4394651 L 220855.832614909,6162535.13107661 L 220514.299318747,6162312.71035911 L 220286.26927213,6161978.93139664 L 220227.119186989,6161601.61543441 L 220323.08515477,6161234.25808924 L 220578.099889196,6160950.30862382 L 220914.790050012,6160770.39191209 L 221426.283949116,6160747.63249252 L 221671.002180039,6160736.74351632 L 222314.641655962,6160333.12796695 L 222976.411484951,6159957.88979195 L 223482.371543612,6159408.11035235 L 223437.258835816,6158713.77083074 L 223747.629896294,6158035.29206417 L 223316.948652484,6157425.35188759 L 222831.479571828,6157076.598249 L 222217.705608628,6157301.37469783 L 221855.852476104,6157305.19985102 L 221493.99934358,6157309.02500421 L 220744.21795486,6157234.27038954 L 220232.666870982,6156668.79303869 L 219477.125658335,6156616.85604403 L 219196.087361848,6156313.16588491 L 218885.574787014,6156199.18589637 L 218448.363292303,6156634.46624341 L 218245.768323671,6156617.61505339 L 218043.17335504,6156600.76386338 L 217893.021654982,6156389.37957078 L 217742.869954924,6156177.99527819 L 217553.036444863,6156003.38495942 L 217364.620050712,6155830.07811473 L 216782.466830265,6155689.56691694 L 216205.450054224,6155910.7477512 L 215640.61260773,6156138.78650835 L 215383.5869513,6156303.20100022 L 215126.561294869,6156467.6154921 L 214801.887214453,6156605.44357744 L 214566.241134585,6156705.47819666 L 214711.998756947,6156217.20271385 L 214857.756379308,6155728.92723105 L 214478.227036906,6155312.05562469 L 214645.288607245,6154674.18809348 L 214887.868876053,6154905.02635186 L 215130.449144862,6155135.86461025 L 215188.931539895,6154662.71869387 L 215218.172737412,6154426.14573568 L 215247.413934929,6154189.57277749 L 214855.31295695,6153873.91753594 L 214463.211978972,6153558.26229439 L 214121.282473975,6153317.96455621 L 213779.352968979,6153077.66681803 L 213341.990736991,6153273.83912275 L 212904.628505003,6153470.01142746 L 212460.009767078,6153275.25290371 L 212015.391029152,6153080.49437996 L 211579.965314294,6153100.4314476 L 211068.501175313,6153123.8501268 L 211198.224499893,6153768.39133792 L 211426.993089602,6154493.06071159 z M 213346.147155475,6155739.48195604 L 213890.410080064,6155906.25878309 L 213811.720510359,6156396.8821934 L 213519.402496687,6156795.99736144 L 213918.509441551,6157164.54477464 L 214128.490602682,6157310.98217414 L 214470.077488875,6157549.1992363 L 213924.768657378,6157494.66835315 L 213652.114241629,6157467.40291158 L 213379.459825881,6157440.13747 L 213257.754879272,6157073.68693298 L 213042.786173882,6156939.30108082 L 212827.817468493,6156804.91522867 L 212777.698015255,6156426.95051733 L 212727.578562016,6156048.985806 L 212803.80887312,6155663.30628287 L 213346.147155475,6155739.48195604 z M 211921.67649991822,6153585.3091867445 L 212259.39474983222,6153733.241566076 L 212704.0134877572,6153928.000089826 L 212747.27986038465,6153944.607470466 L 212791.89803667527,6153957.137531781 L 212837.48469579214,6153965.482626305 L 212883.64819653024,6153969.571060194 L 212929.99194195948,6153969.367709152 L 212976.11778664304,6153964.8743202 L 213021.62945715917,6153956.129496652 L 213066.13595654012,6153943.208366481 L 213109.25492338053,6153926.221936877 L 213546.61715537662,6153730.049632163 L 213724.51919578583,6153650.254325827 L 213833.79133426436,6153727.047487396 L 214162.37562735786,6153957.96661335 L 214470.73209149306,6154206.204540917 L 214439.01292377777,6154218.72092407 L 214395.0827434943,6154241.294312346 L 214353.59399056027,6154268.091737184 L 214314.9514987177,6154298.851718038 L 214279.53232881968,6154333.274109031 L 214247.68208959335,6154371.023027681 L 214219.71156530234,6154411.730132329 L 214195.89368321528,6154454.998216304 L 214176.46085047026,6154500.40508373 L 214161.6026863217,6154547.507669181 L 213994.54111598272,6155185.375200391 L 213984.35189980516,6155234.034159992 L 213979.04516182985,6155283.46444431 L 213978.67336477575,6155333.177382695 L 213983.24018425005,6155382.681510155 L 213989.23184401283,6155413.592666064 L 213492.63738198738,6155261.422740527 L 213454.50248136843,6155251.364016039 L 213415.69341619674,6155244.342260984 L 212873.35513384175,6155168.166587814 L 212823.06977458915,6155163.677402925 L 212772.5880488948,6155164.28197471 L 212722.42462201806,6155169.974139509 L 212673.09091413635,6155180.695865246 L 212625.08988637512,6155196.337843061 L 212578.91091307858,6155216.740601732 L 212535.02479259894,6155241.696133492 L 212493.8789474693,6155270.950014682 L 212455.8928628948,6155304.203999628 L 212421.4538100673,6155341.119061276 L 212390.9128979042,6155381.3188475985 L 212364.5814934649,6155424.393518536 L 212342.72804753858,6155469.90392435 L 212325.57535776656,6155517.386082785 L 212313.29829720274,6155566.355909414 L 212237.06798609873,6155952.035432545 L 212229.43271561232,6156005.965860501 L 212227.7090184303,6156060.406812761 L 212231.91734993187,6156114.712230179 L 212251.78883823432,6156264.568640307 L 212248.80348680227,6156260.388162227 L 212189.6976926437,6156128.790076654 L 212186.2676761434,6155916.112325699 L 212183.26374072846,6155868.862136346 L 212175.8041147429,6155822.107906571 L 212163.95568429714,6155776.268854248 L 212147.8246873485,6155731.7559913965 L 212127.55576112756,6155688.968438865 L 212069.63149171448,6155580.308601047 L 212096.68247033487,6155224.050777939 L 212097.89028318087,6155171.11755887 L 212093.49387654892,6155118.353403408 L 212083.54254971174,6155066.349984414 L 211912.41799632274,6154373.216396184 L 211903.79847136632,6154342.539523976 L 211683.10361496563,6153643.445283969 L 211673.68819057228,6153596.663958703 L 211921.67649991822,6153585.3091867445 z M 213525.20041251875,6157957.2053097235 L 213419.81910649466,6157999.330181549 L 213420.51964130747,6157946.7372326 L 213525.20041251875,6157957.2053097235 z M 214934.98720552618,6157365.191205597 L 214914.8685564273,6157320.8116135495 L 214890.52562295584,6157278.601071953 L 214862.18959562114,6157238.960464153 L 214830.12958827498,6157202.266266235 L 214794.65008227486,6157168.866971545 L 214780.31070763955,6157157.7905450445 L 214997.26733012366,6157065.689827181 L 215321.94141053967,6156927.861741841 L 215359.78586383443,6156909.889502676 L 215395.99289032,6156888.812139016 L 215653.01854674093,6156724.3976471415 L 215870.8925823806,6156585.027712797 L 216388.5367274975,6156376.042051115 L 216816.2706014555,6156212.084019024 L 217121.43333029942,6156285.7395087555 L 217214.54651383645,6156371.385729248 L 217365.68614496995,6156510.405121359 L 217485.39284693703,6156678.928797772 L 217635.54454699502,6156890.313090372 L 217665.4006332867,6156928.31198305 L 217698.78557274636,6156963.251180961 L 217735.3875097458,6156994.804309827 L 217774.8645380174,6157022.676625344 L 217816.8478944709,6157046.607766443 L 217860.9454038859,6157066.374187383 L 217906.74514230175,6157081.791245936 L 217953.81928488432,6157092.714928169 L 218001.7281023266,6157099.0431937035 L 218204.32307093506,6157115.894383712 L 218406.91803956704,6157132.745573731 L 218454.99082187287,6157134.422317332 L 218503.00226496445,6157131.471859743 L 218550.50801259096,6157123.921508084 L 218597.068388822,6157111.841142487 L 218642.25246734312,6157095.342569339 L 218685.64205977178,6157074.578486489 L 218726.83558608085,6157049.741069998 L 218765.45179130833,6157021.0601955075 L 218801.13327415416,6156988.80131069 L 218977.54728853886,6156813.166510752 L 219110.1511819888,6156956.458361028 L 219143.8092057784,6156989.549138217 L 219180.43756193647,6157019.318680128 L 219219.70983875703,6157045.501697024 L 219261.27606337154,6157067.864860301 L 219304.7658205141,6157086.208881782 L 219349.7915534579,6157100.370289668 L 219395.95201770714,6157110.222885302 L 219442.8358566664,6157115.678867787 L 219997.17384780422,6157153.784862277 L 220373.42681273216,6157569.701349529 L 220410.6804892618,6157606.765703661 L 220451.61855773677,6157639.715321439 L 220495.78879942498,6157668.186227843 L 220542.70329168063,6157691.863921535 L 220591.84379773814,6157710.48684898 L 220642.6674913684,6157723.849293666 L 220694.61295316063,6157731.803648535 L 221444.39434188063,6157806.558263205 L 221499.28455343528,6157808.997069987 L 221861.13768596054,6157805.171916797 L 222222.99081848454,6157801.346763606 L 222279.57867421675,6157797.5316525875 L 222335.3704115681,6157787.332508909 L 222389.6481603766,6157770.880564564 L 222754.79668995435,6157637.155781997 L 222956.9790231518,6157782.400509562 L 223173.3237734547,6158088.792666404 L 222982.5746592265,6158505.774918378 L 222964.27824581036,6158551.630886625 L 222950.59344719446,6158599.067737853 L 222941.65369172924,6158647.622957345 L 222937.54614305196,6158696.823126161 L 222938.31085023162,6158746.188537033 L 222969.54917910317,6159226.984467587 L 222661.58994595244,6159561.614942311 L 222068.0183325495,6159898.183216034 L 222049.00789123797,6159909.525909544 L 221517.0650445933,6160243.098371013 L 221404.05795344242,6160248.126731676 L 220892.5640543384,6160270.886151246 L 220848.12618271765,6160274.855910575 L 220804.21908438805,6160282.77109469 L 220761.19234475514,6160294.568683422 L 220719.38853986692,6160310.154745149 L 220679.1405088459,6160329.405184683 L 220342.4503480299,6160509.321896413 L 220304.99593180843,6160531.483805478 L 220269.61053315172,6160556.818703736 L 220236.5622295058,6160585.134655671 L 220206.1013926389,6160616.217141499 L 220149.53748200432,6160679.198961835 L 220148.85621568482,6160677.951583836 L 220121.38239326514,6160637.584526731 L 220090.1020873082,6160600.0898247445 L 220055.31362562635,6160565.825073884 L 220017.34879415826,6160535.11706533 L 219976.5696726462,6160508.258668758 L 219933.36518139462,6160485.506039164 L 219888.1473720432,6160467.076173858 L 219841.34749773142,6160453.144842904 L 219793.41190013336,6160443.844912762 L 219744.79775258954,6160439.265079104 L 219695.9686999349,6160439.449020909 L 219169.79156737291,6160467.159861279 L 219118.3669639168,6160472.545308664 L 219067.77350018398,6160483.21275033 L 219018.5522212356,6160499.048108957 L 218971.22949802762,6160519.88204167 L 218926.31139841516,6160545.491750989 L 218884.27827527694,6160575.603367409 L 218845.57962963535,6160609.894878161 L 218810.62930370527,6160647.999570806 L 218527.07542536382,6160991.198917837 L 218106.29498391435,6161411.979359287 L 218074.7303986775,6161446.653235499 L 218046.5526960958,6161484.131466646 L 218022.0096822395,6161524.084454063 L 217674.7400837935,6162153.817897963 L 217652.34622126038,6162199.853820833 L 217634.77705258093,6162247.93828387 L 217383.24848871666,6163063.674972135 L 216824.5917081275,6163648.90987475 L 216482.33903080144,6163926.861506561 L 216085.9851123074,6163784.371282796 L 215806.14592302835,6163250.132830535 L 215779.9433960813,6163205.821154507 L 215749.32354701357,6163164.438526582 L 215714.61095811182,6163126.423618684 L 215676.173596294,6163092.17940359 L 215634.41891251685,6163062.0688832775 L 215589.78952263776,6163036.411240948 L 214891.094635641,6162681.268853537 L 214864.59903058532,6162660.893929855 L 214923.49605308112,6162523.692793771 L 215268.54302253155,6162068.148302977 L 215295.60008040557,6162028.627164621 L 215318.75155436076,6161986.698486947 L 215337.78500603142,6161942.747008301 L 215352.5257841028,6161897.176028285 L 215362.83862691472,6161850.4037070805 L 215368.62890362533,6161802.859228397 L 215408.97716278568,6161253.20815606 L 215618.42868016555,6160801.631316662 L 216060.85706670556,6160452.4314821465 L 216099.14647454265,6160418.911281445 L 216133.8303740086,6160381.672729842 L 216164.54948393875,6160341.101571457 L 216519.22701974673,6159819.4991830075 L 216545.1108453866,6159777.035100226 L 216566.64830558127,6159732.209788576 L 216583.62633706382,6159685.466690656 L 216595.87698155036,6159637.268221117 L 216603.27904729816,6159588.091192141 L 216605.75930801706,6159538.422096488 L 216603.29322727394,6159488.752294778 L 216595.90520122388,6159439.573154613 L 216583.66831726683,6159391.371189641 L 216566.70363101692,6159344.62324662 L 216545.1789687379,6159299.791788134 L 216519.30726709086,6159257.320317591 L 216489.34446661954,6159217.628991786 L 216455.58697981152,6159181.110464426 L 216418.3687587835,6159148.126001724 L 216378.05799159894,6159119.001908516 L 215779.10706274395,6158730.080943236 L 215739.46933655482,6158706.858995345 L 215697.86757203832,6158687.373067337 L 215654.65295601456,6158671.787652258 L 215610.19029040376,6158660.234316461 L 215564.85491270258,6158652.810588963 L 215519.02952752265,6158649.579138147 L 215473.10097593884,6158650.567242734 L 215349.358464608,6158658.928342667 L 215352.44479734625,6158620.087535929 L 215353.9052987627,6158569.966774449 L 215339.1760114327,6157869.731430469 L 215335.6337638817,6157819.918359609 L 215327.14017621867,6157770.707095504 L 215313.7799767216,6157722.588547981 L 215295.68644083783,6157676.042726413 L 215273.04006168744,6157631.5339513505 L 215246.06674954324,6157589.506222668 L 215215.03557825004,6157550.37879042 L 215180.25610106255,6157514.541972581 L 215142.07526267914,6157482.353261414 L 215100.87393827466,6157454.133757281 L 215057.06313405794,6157430.164965486 L 215011.07988725565,6157410.685988107 L 214963.38290642173,6157395.891138815 L 214944.10213581988,6157391.965579251 L 214934.98720552618,6157365.191205597 z M 219830.0940387114,6162183.636444001 L 219850.0378283337,6162223.271584582 L 219873.41685178253,6162260.982595916 L 220101.44689839953,6162594.761558386 L 220131.2015193134,6162634.014072237 L 220164.67387038912,6162670.148529791 L 220201.539122903,6162702.81426821 L 220241.4395220954,6162731.694286452 L 220582.9728182574,6162954.115003952 L 220628.15307726458,6162980.285014184 L 220675.81606800834,6163001.600842877 L 220982.75469427215,6163120.052317348 L 220549.8934402945,6163217.543590765 L 219550.91725746694,6163442.538226543 L 219051.4291660415,6163555.035544425 L 218551.9410746235,6163667.532862315 L 218546.13892920897,6163668.876009236 L 218532.29569007948,6163672.167584459 L 218847.93124156463,6163229.77535253 L 219322.91780777072,6162785.024531391 L 219367.1398078354,6162737.895671593 L 219655.43805800367,6162387.812877956 L 219818.17735658467,6162190.197289756 L 219827.69932316098,6162177.595702839 L 219830.0940387114,6162183.636444001 z M 222793.30066232613,6162359.731795798 L 222820.77999230564,6162310.192571956 L 222842.47914339777,6162257.862894746 L 222995.6653019876,6161819.804315405 L 223393.47737922348,6161578.183805132 L 223625.32715343306,6161461.779328074 L 223642.20602935128,6161479.171474665 L 223608.76246158223,6161715.301942605 L 223263.45510971808,6162093.115966854 L 223232.65417210062,6162130.268708306 L 223205.57850817498,6162170.217830682 L 223182.48035742078,6162212.591164128 L 223163.5749044237,6162256.99395461 L 223149.03827419548,6162303.012541477 L 223139.00589137623,6162350.218211163 L 223133.57121860562,6162398.171191127 L 223132.78488581596,6162446.424746813 L 223139.61674532384,6162659.95227495 L 223054.80904776903,6162676.474062077 L 222528.62339640994,6162778.982767918 L 222793.30066232613,6162359.731795798 z" /></g></svg>