<svg xmlns="http://www.w3.org/2000/svg" xmlns:xlink="http://www.w3.org/1999/xlink" width="300" height="300" viewBox="210544.37652886522 6152553.542171583 14151.365454089566 12470.009991484694" preserveAspectRatio="xMinYMin meet"><g transform="matrix(1,0,0,-1,0,12317577.09433465)"><path fill-rule="evenodd" fill="#66cc99" stroke="#555555" stroke-width="94.3424363605971" opacity="0.6" d="M 211198.224499893,6153768.39133792 L 211426.993089602,6154493.06071159 L 211598.117642991,6155186.19429982 L 211560.067149477,6155687.31428434 L 211686.332689651,6155924.175159 L 211691.422367769,6156239.7600243 L 211813.043112547,6156510.54662664 L 212002.671108396,6156776.08845575 L 211951.445124963,6157057.00755047 L 211928.67197923,6157352.12089064 L 212168.971013177,6157573.75266458 L 212437.693494665,6157513.13628371 L 212785.410695445,6157391.22748342 L 212782.002381097,6157615.82738795 L 212921.260010216,6157887.8238852 L 212914.88339843,6158366.55072644 L 213339.143877772,6158570.04687561 L 213786.683470809,6158391.14846654 L 214103.901284406,6158200.0802819 L 214489.322205307,6158007.47876373 L 214839.286590095,6157880.24648799 L 214854.015877425,6158580.48183197 L 214805.038807097,6159196.84730017 L 215506.808384256,6159149.42975949 L 216105.759313111,6159538.35072477 L 215751.081777303,6160059.95311322 L 215215.029712398,6160483.04823562 L 214916.999056511,6161125.60143033 L 214869.970631973,6161766.25419988 L 214488.098919549,6162270.41615517 L 214251.953956276,6162820.51794077 L 214623.123589079,6163105.9446342 L 215363.230155388,6163482.13632787 L 215733.477985935,6164188.97309528 L 216578.604970663,6164492.79835736 L 217164.389580285,6164017.06858541 L 217826.315557184,6163323.65144972 L 218112.578776062,6162395.26619378 L 218459.848374508,6161765.53274988 L 218897.413992427,6161327.96713196 L 219196.087361848,6160966.46791368 L 219722.26449441,6160938.75707331 L 219805.859889859,6161258.6000753 L 219634.293094815,6161580.26860057 L 219432.209410888,6161872.34709722 L 219269.470112307,6162069.96268542 L 218981.171862145,6162420.04547905 L 218725.502311582,6162659.44012859 L 218469.832761019,6162898.83477813 L 218064.498077104,6163466.9485874 L 217506.554749456,6163895.7237049 L 217214.578876771,6164499.42751662 L 218210.804294712,6164262.55008703 L 218661.801736625,6164155.31420159 L 219161.289828043,6164042.8168837 L 219660.77791946,6163930.31956582 L 220659.754102296,6163705.32493004 L 221528.846519039,6163509.58339474 L 222397.938935781,6163313.84185944 L 223150.418968344,6163167.24767902 L 223652.971152095,6163069.34312036 L 223632.529158668,6162430.43532057 L 224082.14080953,6161938.49796029 L 224171.617336507,6161306.74316874 L 223728.727172704,6160850.38513341 L 223151.131246053,6161140.37787557 L 222582.870998718,6161485.52408602 L 222370.504850611,6162092.81663775 L 222026.729155452,6162637.36017415 L 221635.713791149,6162750.33997598 L 221234.955761959,6162681.4394651 L 220855.832614909,6162535.13107661 L 220514.299318747,6162312.71035911 L 220286.26927213,6161978.93139664 L 220227.119186989,6161601.61543441 L 220323.08515477,6161234.25808924 L 220578.099889196,6160950.30862382 L 220914.790050012,6160770.39191209 L 221426.283949116,6160747.63249252 L 221671.002180039,6160736.74351632 L 222314.641655962,6160333.12796695 L 222976.411484951,6159957.88979195 L 223482.371543612,6159408.11035235 L 223437.258835816,6158713.77083074 L 223747.629896294,6158035.29206417 L 223316.948652484,6157425.35188759 L 222831.479571828,6157076.598249 L 222217.705608628,6157301.37469783 L 221855.852476104,6157305.19985102 L 221493.99934358,6157309.02500421 L 220744.21795486,6157234.27038954 L 220232.666870982,6156668.79303869 L 219477.125658335,6156616.85604403 L 219196.087361848,6156313.16588491 L 218885.574787014,6156199.18589637 L 218448.363292303,6156634.46624341 L 218245.768323671,6156617.61505339 L 218043.17335504,6156600.76386338 L 217893.021654982,6156389.37957078 L 217742.869954924,6156177.99527819 L 217553.036444863,6156003.38495942 L 217364.620050712,6155830.07811473 L 216782.466830265,6155689.56691694 L 216205.450054224,6155910.7477512 L 215640.61260773,6156138.78650835 L 215383.5869513,6156303.20100022 L 215126.561294869,6156467.6154921 L 214801.887214453,6156605.44357744 L 214566.241134585,6156705.47819666 L 214711.998756947,6156217.20271385 L 214857.756379308,6155728.92723105 L 214478.227036906,6155312.05562469 L 214645.288607245,6154674.18809348 L 214887.868876053,6154905.02635186 L 215130.449144862,6155135.86461025 L 215188.931539895,6154662.71869387 L 215218.172737412,6154426.14573568 L 215247.413934929,6154189.57277749 L 214855.31295695,6153873.91753594 L 214463.211978972,6153558.26229439 L 214121.282473975,6153317.96455621 L 213779.352968979,6153077.66681803 L 213341.990736991,6153273.83912275 L 212904.628505003,6153470.01142746 L 212460.009767078,6153275.25290371 L 212015.391029152,6153080.49437996 L 211579.965314294,6153100.4314476 L 211068.501175313,6153123.8501268 L 211198.224499893,6153768.39133792 z M 212803.80887312,6155663.30628287 L 213346.147155475,6155739.48195604 L 213890.410080064,6155906.25878309 L 213811.720510359,6156396.8821934 L 213519.402496687,6156795.99736144 L 213918.509441551,6157164.54477464 L 214128.490602682,6157310.98217414 L 214470.077488875,6157549.1992363 L 213924.768657378,6157494.66835315 L 213652.114241629,6157467.40291158 L 213379.459825881,6157440.13747 L 213257.754879272,6157073.68693298 L 213042.786173882,6156939.30108082 L 212827.817468493,6156804.91522867 L 212777.698015255,6156426.95051733 L 212727.578562016,6156048.985806 L 212803.80887312,6155663.30628287 z" /></g></svg>