<?xml version="1.0" encoding="utf-8"?>
<!-- Generator: Adobe Illustrator 23.1.0, SVG Export Plug-In . SVG Version: 6.00 Build 0)  -->
<svg version="1.1" xmlns="http://www.w3.org/2000/svg" xmlns:xlink="http://www.w3.org/1999/xlink" x="0px" y="0px"
	 viewBox="0 0 234.8 99.5" style="enable-background:new 0 0 234.8 99.5;" xml:space="preserve">
<style type="text/css">
	.st0{fill:#FFFFFF;}
	.st1{fill:#01C4FF;}
</style>
<g id="Layer_1">
	<path class="st0" d="M99.5,62.4l-6-19.5l-3.1,19.5h-4.3l4-25.2h5.4l6.1,20l6-20h5.4l4,25.2h-4.3l-3.1-19.5l-6,19.5H99.5z"/>
	<path class="st0" d="M124.4,62.4H120V37.1h4.3V62.4z"/>
	<path class="st0" d="M127.5,37.1h4.3v25.2h-4.3V37.1z M141.6,37.1h5.2l-9.9,12.4l10.6,12.8h-5.3L132,49.9L141.6,37.1z"/>
	<path class="st0" d="M164.2,58.6v3.8h-15.7V37.1H164V41h-11.1v6.8h10.3v3.7h-10.3v7.1H164.2z"/>
	<path class="st1" d="M180.3,62.4h-4.3V37.1h4.3V62.4z"/>
	<path class="st1" d="M183.4,49.8c0-1.9,0.3-3.6,1-5.1c0.7-1.6,1.6-2.9,2.8-4s2.6-2,4.1-2.6c1.6-0.6,3.3-0.9,5.1-0.9
		c1.8,0,3.5,0.3,5.1,0.9c1.6,0.6,3,1.5,4.2,2.6c1.2,1.1,2.1,2.4,2.8,4c0.7,1.6,1,3.3,1,5.1c0,1.9-0.3,3.6-1,5.1
		c-0.7,1.6-1.6,2.9-2.8,4c-1.2,1.1-2.6,2-4.2,2.6c-1.6,0.6-3.3,0.9-5.1,0.9c-1.8,0-3.6-0.3-5.1-0.9c-1.6-0.6-3-1.5-4.1-2.6
		c-1.2-1.1-2.1-2.4-2.8-4C183.7,53.3,183.4,51.6,183.4,49.8z M205.1,49.8c0-1.3-0.2-2.5-0.7-3.6c-0.4-1.1-1-2-1.8-2.7
		s-1.7-1.4-2.7-1.8c-1-0.4-2.2-0.6-3.4-0.6c-1.2,0-2.4,0.2-3.4,0.6c-1,0.4-2,1-2.7,1.8c-0.8,0.8-1.4,1.7-1.8,2.7
		c-0.4,1.1-0.7,2.3-0.7,3.6s0.2,2.5,0.7,3.6s1,2,1.8,2.7c0.8,0.8,1.7,1.4,2.7,1.8c1,0.4,2.2,0.6,3.4,0.6c1.2,0,2.4-0.2,3.4-0.6
		c1-0.4,2-1,2.7-1.8c0.8-0.8,1.4-1.7,1.8-2.7S205.1,51.1,205.1,49.8z"/>
	<g>
		<polygon class="st0" points="53.4,51.5 53.4,34.9 49.8,32.7 46.1,34.9 46.1,51.5 37.2,46.1 37.2,53.4 49.8,61 62.3,53.4 
			62.3,46.1 		"/>
	</g>
	<g>
		<polygon class="st1" points="53.4,48 53.4,64.6 49.8,66.8 46.1,64.6 46.1,48 37.2,53.4 37.2,46.1 49.8,38.5 62.3,46.1 62.3,53.4 
					"/>
	</g>
	<polygon class="st0" points="53.4,64.6 49.8,66.8 46.1,64.6 46.1,64.6 49.8,62.4 53.4,64.6 	"/>
	<path class="st0" d="M49.8,25.2c-13.5,0-24.5,11-24.5,24.5c0,13.5,11,24.5,24.5,24.5c13.5,0,24.5-11,24.5-24.5
		C74.3,36.2,63.3,25.2,49.8,25.2z M49.8,71.9c-12.2,0-22.1-9.9-22.1-22.1c0-12.2,9.9-22.1,22.1-22.1c12.2,0,22.1,9.9,22.1,22.1
		C71.9,62,62,71.9,49.8,71.9z"/>
</g>
<g id="Layer_2">
</g>
</svg>
