<?xml version="1.0" encoding="utf-8"?>
<!-- Generator: Adobe Illustrator 23.1.0, SVG Export Plug-In . SVG Version: 6.00 Build 0)  -->
<svg version="1.1" xmlns="http://www.w3.org/2000/svg" xmlns:xlink="http://www.w3.org/1999/xlink" x="0px" y="0px"
	 viewBox="0 0 99.5 99.5" style="enable-background:new 0 0 99.5 99.5;" xml:space="preserve">
<style type="text/css">
	.st0{fill:#FFFFFF;}
	.st1{fill:#01C4FF;}
</style>
<g id="Layer_1">
	<g>
		<polygon class="st0" points="53.4,51.5 53.4,34.9 49.8,32.7 46.1,34.9 46.1,51.5 37.2,46.1 37.2,53.4 49.8,61 62.3,53.4 
			62.3,46.1 		"/>
	</g>
	<g>
		<polygon class="st1" points="53.4,48 53.4,64.6 49.8,66.8 46.1,64.6 46.1,48 37.2,53.4 37.2,46.1 49.8,38.5 62.3,46.1 62.3,53.4 
					"/>
	</g>
	<polygon class="st0" points="53.4,64.6 49.8,66.8 46.1,64.6 46.1,64.6 49.8,62.4 53.4,64.6 	"/>
	<path class="st0" d="M49.8,25.2c-13.5,0-24.5,11-24.5,24.5s11,24.5,24.5,24.5c13.5,0,24.5-11,24.5-24.5S63.3,25.2,49.8,25.2z
		 M49.8,71.9c-12.2,0-22.1-9.9-22.1-22.1s9.9-22.1,22.1-22.1c12.2,0,22.1,9.9,22.1,22.1S62,71.9,49.8,71.9z"/>
</g>
<g id="Layer_2">
</g>
</svg>
